<?xml version="1.0" encoding="UTF-8"?><svg xmlns="http://www.w3.org/2000/svg" xmlns:xlink="http://www.w3.org/1999/xlink" contentScriptType="text/ecmascript" width="375" zoomAndPan="magnify" contentStyleType="text/css" viewBox="0 0 375 374.999991" height="374.999991" preserveAspectRatio="xMidYMid meet" version="1.0"><defs><clipPath id="clip-0"><path d="M 41 2.671875 L 334 2.671875 L 334 372.421875 L 41 372.421875 Z M 41 2.671875 " clip-rule="nonzero"/></clipPath><clipPath id="clip-1"><path d="M 319.09375 83.140625 L 333.859375 28.113281 L 278.753906 42.859375 L 289.992188 54.082031 L 264.917969 79.128906 C 262.308594 74.167969 259.390625 69.425781 256.148438 64.960938 L 237.878906 83.210938 C 240.417969 87.058594 242.699219 91.113281 244.644531 95.339844 L 245.484375 98.546875 L 91.335938 252.535156 L 91.78125 207.660156 L 252.691406 46.917969 L 263.488281 57.703125 L 278.265625 2.671875 L 223.160156 17.421875 L 234.746094 28.996094 L 227.070312 36.664062 C 207.71875 23.363281 184.441406 15.820312 160.015625 15.820312 C 94.671875 15.820312 41.507812 68.929688 41.507812 134.210938 C 41.507812 160.53125 50.304688 186.136719 66.378906 206.796875 L 65.574219 287.960938 L 193.257812 372.417969 L 193.257812 292.480469 L 257.375 302.324219 L 257.375 219.9375 L 303.433594 219.9375 L 277.890625 122.082031 L 257.082031 142.871094 L 270.570312 194.585938 L 232 194.585938 L 232 272.792969 L 167.882812 262.90625 L 167.882812 325.226562 L 99.648438 280.082031 L 307.9375 72 Z M 160.015625 41.171875 C 177.59375 41.171875 194.355469 46.152344 208.738281 54.976562 L 80.714844 182.871094 C 71.765625 168.316406 66.882812 151.492188 66.882812 134.210938 C 66.882812 82.917969 108.671875 41.171875 160.015625 41.171875 Z M 160.015625 41.171875 " clip-rule="nonzero"/></clipPath><radialGradient gradientTransform="matrix(1.00051, 0, 0, 0.99949, 41.508202, 2.67069)" xmlns:xlink="http://www.w3.org/1999/xlink" gradientUnits="userSpaceOnUse" xlink:type="simple" r="399.230491" xlink:actuate="onLoad" cx="230.40746" id="radial-pattern-0" cy="5.787041" xlink:show="other" fx="230.40746" fy="5.787041"><stop stop-opacity="1" stop-color="rgb(100%, 63.09967%, 0%)" offset="0"/><stop stop-opacity="1" stop-color="rgb(100%, 63.09967%, 0%)" offset="1"/></radialGradient></defs><g clip-path="url(#clip-0)"><g clip-path="url(#clip-1)"><path fill="url(#radial-pattern-0)" d="M 41.507812 2.671875 L 41.507812 372.417969 L 333.859375 372.417969 L 333.859375 2.671875 Z M 41.507812 2.671875 " fill-rule="nonzero"/></g></g></svg>